<svg xmlns="http://www.w3.org/2000/svg" width="49" height="51" viewBox="0 0 49 51" fill="none">
  <g clip-path="url(#clip0_1_195)">
    <path d="M24.1764 0C10.9012 0 0.148193 10.753 0.148193 24.0282H48.1604C48.1604 10.753 37.4074 0 24.1764 0Z" fill="black"/>
    <path d="M45.5496 26.7715C45.5496 38.5422 35.9471 48.1447 24.1764 48.1447C12.4057 48.1447 2.80325 38.5422 2.80325 26.7715H0.148193C0.148193 40.0025 10.9012 50.7997 24.1764 50.7997C37.4517 50.7997 48.2046 40.0467 48.2046 26.7715H45.5496Z" fill="black"/>
    <path d="M24.1764 44.7816C34.0886 44.7816 42.1865 36.7279 42.1865 26.7715H39.5315C39.5315 35.2676 32.6283 42.1265 24.1764 42.1265C15.6803 42.1265 8.82137 35.2234 8.82137 26.7715H6.21057C6.16632 36.7279 14.22 44.7816 24.1764 44.7816Z" fill="black"/>
  </g>
  <defs>
    <clipPath id="clip0_1_195">
      <rect width="48.0122" height="50.8" fill="white" transform="translate(0.148193)"/>
    </clipPath>
  </defs>
</svg>