<svg width="63" height="63" viewBox="0 0 63 63" fill="none" xmlns="http://www.w3.org/2000/svg">
<g id="Frame" clip-path="url(#clip0_1223_10513)">
<g id="Group">
<path id="Vector" d="M51.7451 23.4277C48.8796 12.0125 37.303 5.08161 25.8877 7.9471C16.967 10.1865 10.4896 17.8965 9.82217 27.0697C3.48809 28.1143 -0.799977 34.0958 0.244585 40.4299C1.17315 46.0609 6.05245 50.1848 11.7595 50.1622H21.4459V46.2876H11.7595C7.47975 46.2876 4.01031 42.8182 4.01031 38.5385C4.01031 34.2587 7.47975 30.7893 11.7595 30.7893C12.8294 30.7893 13.6967 29.922 13.6967 28.852C13.6871 19.2226 21.4855 11.4086 31.1149 11.399C39.4506 11.3906 46.6262 17.2836 48.2386 25.4618C48.3162 25.86 48.5169 26.2238 48.8124 26.5019C49.1078 26.7799 49.4831 26.9582 49.8853 27.0116C55.1816 27.7658 58.8635 32.6707 58.1094 37.9668C57.4322 42.7226 53.3717 46.2636 48.5679 46.2876H40.8188V50.1622H48.5679C56.0575 50.1395 62.1105 44.0497 62.0878 36.5601C62.0689 30.3257 57.8015 24.9072 51.7451 23.4277Z" fill="black"/>
<path id="Vector_2" d="M29.757 27.7626L22.0078 35.5118L24.7394 38.2433L29.1952 33.8069V52.3855H33.0697V33.8069L37.5061 38.2433L40.2377 35.5118L32.4885 27.7626C31.7329 27.0114 30.5126 27.0114 29.757 27.7626Z" fill="black"/>
</g>
</g>
<defs>
<clipPath id="clip0_1223_10513">
<rect width="62" height="62" fill="white" transform="translate(0.0878906 0.636719)"/>
</clipPath>
</defs>
</svg>
